<svg xmlns="http://www.w3.org/2000/svg" viewBox="0 0 694.6 222.1"><path d="M90.2.6a97.8 97.8 0 0136 6.6 91 91 0 0129.1 18.1 84.8 84.8 0 0119.5 27.2 79.6 79.6 0 017.1 33.4 78.3 78.3 0 01-10.6 40.1 91.8 91.8 0 01-30 30.8 110.2 110.2 0 01-24.3 11.9l-13.5 4.9-8 3-5.8 2.4a50.5 50.5 0 00-4.5 2.3l-4 2.5v.8a38 38 0 013.9-.3l4.4-.1a71.7 71.7 0 0117.3 2q8.2 2 16.1 4.3t16 4.4a69.9 69.9 0 0017 2q10.2 0 16-3.6t8.8-12.1h7.9l.6 5 .2 4a25.7 25.7 0 01-3 12.3 30.2 30.2 0 01-8.3 9.7 40.3 40.3 0 01-12.5 6.5 50.2 50.2 0 01-15.4 2.3 59.3 59.3 0 01-22-4 204 204 0 01-19.5-8.9q-9.4-4.9-17.8-8.9a38.9 38.9 0 00-16.8-4 20 20 0 00-9.3 2 44.5 44.5 0 00-6.5 4q-2.9 2.3-5.7 4.2a12.1 12.1 0 01-7 1.9 8.9 8.9 0 01-5.6-1.7 5.2 5.2 0 01-2.1-4.2 9 9 0 013.2-6.7q3.3-3 12.2-8l26.7-15a88.3 88.3 0 01-31.6-8.7 85.8 85.8 0 01-42.2-45 84 84 0 0119.7-92.8 88.7 88.7 0 0128.7-18A95.5 95.5 0 0190.2.6zm0 159a48.2 48.2 0 0040-19.9 71.8 71.8 0 0011-23.1 108.4 108.4 0 003.9-30.1 106.1 106.1 0 00-4-29.9 69.5 69.5 0 00-11-22.7 49.3 49.3 0 00-17.2-14.4 50 50 0 00-22.7-5 48.9 48.9 0 00-22.4 5 46 46 0 00-16.6 14.2 69.9 69.9 0 00-10.5 22.7A112.7 112.7 0 0037 86.5a116 116 0 003.7 30.5 70 70 0 0010.6 23 46.4 46.4 0 0038.9 19.7zm194.3-66.8q0-8-.4-12.7a14.4 14.4 0 00-2.2-7.2 9 9 0 00-5.3-3.4 66.6 66.6 0 00-9.5-1.5v-8h45.2v60.6q0 12.2.3 19.1a59.5 59.5 0 001.1 10.3 16.8 16.8 0 001.4 4.1 5.7 5.7 0 002.6 2.4 14.2 14.2 0 004.9 1.2q3 .3 8.1.3v7.8l-39.8 2.4-2.2-17.8h-.8a34.7 34.7 0 01-14.6 13 47.1 47.1 0 01-21 4.6q-21.4 0-32.6-15.2-8.6-11.6-8.6-33v-27q0-8.2-.4-12.9a14.5 14.5 0 00-2.1-7.1 8.8 8.8 0 00-5.1-3.3 63.2 63.2 0 00-9.4-1.5v-8h44.8v56.6q0 20.2 5 29.3t16 9.1q11.8 0 18.2-10.8 6.4-10.4 6.4-30.6zm117.6 5.6V90q0-11.6-4.1-16.9t-12.7-5.3q-5.8 0-8.8 3.1t-5.6 10.3a18 18 0 01-5.1 7.8c-2.2 1.9-5.2 2.8-9.1 2.8s-6.6-1.1-8.6-3.4-3-5.5-3-9.6q0-9.6 10.5-15.2t31.7-5.6q22.4 0 32 8.1t9.6 27.1V137q0 17 6.8 17a10.9 10.9 0 007-2.6l3 5.8a19.4 19.4 0 01-8.7 7.9 29.8 29.8 0 01-13.3 2.9q-9.2 0-14-5.6t-4.8-15.8h-1a39.4 39.4 0 01-36 21.2q-12.6 0-20.2-7.1t-7.6-18.5q0-8.8 7.8-16.5t26-15.1zm0 10.6q-16.8 7.6-25.3 14.1t-8.5 13.5q0 5.8 3.2 9.2a10.5 10.5 0 008 3.4 23.8 23.8 0 009-1.7 23 23 0 007.2-4.5 20 20 0 004.7-6.7 20.6 20.6 0 001.7-8.3zm151.6 40.4a51 51 0 01-18.9 13 64.3 64.3 0 01-24.5 4.6 60.6 60.6 0 01-22.2-3.9 50.8 50.8 0 01-17.2-10.9 47.5 47.5 0 01-11.1-16.9 63.2 63.2 0 01.3-44.5 50.7 50.7 0 0111.8-17.5A52.8 52.8 0 01490.1 62a65.7 65.7 0 0123.4-4 73.3 73.3 0 0116.7 1.8 48 48 0 0113.2 5 28.6 28.6 0 018.7 7.5 15.3 15.3 0 013.2 9.3q0 5.8-3.3 9.2a11.8 11.8 0 01-8.9 3.4 14 14 0 01-8.1-2.4 26 26 0 01-6.9-7.8q-3-4.8-5.1-7.6a25.6 25.6 0 00-3.9-4.3 9.7 9.7 0 00-3.6-2 16.8 16.8 0 00-4.4-.5q-11.6 0-18 10.8t-6.4 30.2q0 20.8 7.7 32t22.1 11.2a46 46 0 0016.4-3.1 59.4 59.4 0 0015.6-8.9zm78.8 8.6a55.1 55.1 0 009-.5c1.7-.3 2.6-1 2.6-2.1q0-1.2-2.7-5.9t-7-10.9l-15.1-22.8-10 9.6v7.8a105.8 105.8 0 00.6 12.6 21 21 0 002 7.5 7.8 7.8 0 004.3 3.7 20 20 0 006.9 1v8h-59v-8a37.2 37.2 0 009-1.2 10.5 10.5 0 005.4-3.5 14.6 14.6 0 002.7-7 78.5 78.5 0 00.7-11.7V49.8q0-12.2-.4-19.2t-2.1-10.5a7.4 7.4 0 00-5.2-4.3 44.7 44.7 0 00-9.5-.8V7.6L609.3 0v111.2L628.5 93q10.4-9.8 14.8-14.7c3-3.3 4.4-5.6 4.4-7.1q0-1.8-3.7-2.5t-13.7-.7v-8h54.6v8a32.6 32.6 0 00-13.4 2.6 47.7 47.7 0 00-12.6 9l-19.4 18.2 34.6 49q4.6 6.4 9 8.8t11.6 2.4v8h-62.2zM194.6 22v-2.6a15.8 15.8 0 006-3.1 13.4 13.4 0 003.7-4.8h3v7.3h7v3.3h-7v18.4a12.3 12.3 0 00.8 5.3 2.8 2.8 0 002.8 1.5 3.8 3.8 0 003.5-2.1l1.3 1.7q-1.7 4.3-8 4.3a9.8 9.8 0 01-6.4-2 6.6 6.6 0 01-2.3-5.4V22.1zm36.1 18.7a38.7 38.7 0 00.1 3.9 5 5 0 00.7 2.2 2.4 2.4 0 001.6 1 19 19 0 002.8.3v2.4H217v-2.4a20 20 0 002.9-.3 2.6 2.6 0 001.6-1 4.2 4.2 0 00.7-2 34.5 34.5 0 00.1-3.7V10.7a19.4 19.4 0 00-.4-3.1 5.1 5.1 0 00-.4-1.2 1.7 1.7 0 00-.8-.8 3.8 3.8 0 00-1.3-.3l-2.2-.1V3L230.6.7v22.2h.2a11.9 11.9 0 014.2-3.6 12.4 12.4 0 015.5-1.2q5.9 0 9.1 3.6a13.3 13.3 0 012.5 4.4 15.8 15.8 0 01.9 5.3v9.3l.1 4a4.5 4.5 0 00.6 2 2.4 2.4 0 001.6 1 18.3 18.3 0 002.8.4v2.4h-18.8v-2.4a13.8 13.8 0 002.9-.3 3 3 0 001.6-1 4 4 0 00.7-2 34.5 34.5 0 00.2-3.7v-7.4q0-6.3-1.4-9a4.9 4.9 0 00-4.7-2.6 6.9 6.9 0 00-5.7 2.6 10.4 10.4 0 00-1.6 3.4 17 17 0 00-.6 4.6zm43.7.6a25.3 25.3 0 00.2 3.7 3.9 3.9 0 00.9 2 3.2 3.2 0 001.9 1 21.3 21.3 0 003.3.2v2.4h-20v-2.4a20 20 0 003-.4 2.6 2.6 0 001.5-1 4.2 4.2 0 00.7-2 34.5 34.5 0 00.2-3.7v-7.3q0-3.7-.2-6a9.6 9.6 0 00-.8-3.4 3 3 0 00-1.7-1.6 9 9 0 00-2.9-.4v-2l12-2.3 1 7h.2a13.5 13.5 0 014.3-5 9.5 9.5 0 015.6-2 5.8 5.8 0 013.7 1.2 3.5 3.5 0 011.4 2.9 4.9 4.9 0 01-1 3.2 3.8 3.8 0 01-3 1.3 3.6 3.6 0 01-1.7-.3 7.5 7.5 0 01-1.3-.8l-1.1-.9a2 2 0 00-1.2-.4 2.8 2.8 0 00-2.1 1.5 13 13 0 00-1.7 4 32.4 32.4 0 00-.8 4 33.8 33.8 0 00-.3 4.6zm46.4 3.7a17.4 17.4 0 01-13.6 6.2 18.6 18.6 0 01-6.8-1.2 14.7 14.7 0 01-8.5-8.4 17.2 17.2 0 01-1.2-6.5 17.9 17.9 0 011.3-6.8 15.6 15.6 0 013.5-5.3 16.5 16.5 0 015.5-3.6 18.5 18.5 0 017-1.2q6.3 0 9.8 3.4t3.6 9.6q0 1-.3 1.2a3.8 3.8 0 01-1.7.2H300a5.5 5.5 0 00-.3 2q0 5.9 2.6 9.3a8.2 8.2 0 006.9 3.4 12 12 0 005-1.1 19.3 19.3 0 004.8-3.3zm-11.6-15.8a10.7 10.7 0 003-.3 1.2 1.2 0 00.8-1.2 6.2 6.2 0 00-1.5-4.4 4.8 4.8 0 00-3.8-1.6 6.2 6.2 0 00-4.6 2 10.4 10.4 0 00-2.6 5.5zM356 45a17.4 17.4 0 01-13.7 6.2 18.6 18.6 0 01-6.7-1.2 14.7 14.7 0 01-8.6-8.4 17.2 17.2 0 01-1.2-6.5 17.9 17.9 0 011.3-6.8 15.6 15.6 0 013.5-5.3 16.5 16.5 0 015.5-3.6 18.5 18.5 0 017-1.2q6.3 0 9.8 3.4t3.6 9.6q0 1-.3 1.2a3.8 3.8 0 01-1.7.2h-19.3a5.5 5.5 0 00-.3 2q0 5.9 2.6 9.3a8.2 8.2 0 006.9 3.4 12 12 0 005-1.1 19.3 19.3 0 004.8-3.3zm-11.7-15.8a10.7 10.7 0 003-.3 1.2 1.2 0 00.8-1.2 6.2 6.2 0 00-1.5-4.4 4.8 4.8 0 00-3.8-1.6 6.2 6.2 0 00-4.6 2 10.4 10.4 0 00-2.6 5.5zM602 212.3a32.4 32.4 0 00.2 3.8 5 5 0 00.7 2.3 2.6 2.6 0 001.6 1 13 13 0 002.7.3v2.4h-18.9v-2.4a10.6 10.6 0 002.7-.4 3.1 3.1 0 001.7-1 4.6 4.6 0 00.7-2.1 23.2 23.2 0 00.3-3.5v-7.4q0-3.4-.2-5.7a23.4 23.4 0 00-.3-3 2.5 2.5 0 00-1.3-2 10.3 10.3 0 00-3.8-.6v-2l13.9-2.2zm-8.8-31.3a4.5 4.5 0 011.3-3.3 4.5 4.5 0 013.3-1.4 4.6 4.6 0 014.7 4.7 4.5 4.5 0 01-1.4 3.3 4.5 4.5 0 01-3.3 1.3 4.6 4.6 0 01-4.6-4.6zm30.5 31.4a38.7 38.7 0 00.1 3.8 4.8 4.8 0 00.7 2.2 2.5 2.5 0 001.5 1 19 19 0 002.9.3v2.4H610v-2.4a18.8 18.8 0 002.8-.3 2.8 2.8 0 001.6-1 4.2 4.2 0 00.8-2 28 28 0 00.1-3.6v-13.2a21 21 0 00-.4-3 4.6 4.6 0 00-.5-1.3 2 2 0 00-.9-.8 4.8 4.8 0 00-1.5-.4h-2.2v-2l11.5-2.3.8 5.2h.3a14 14 0 014.6-3.9 12.9 12.9 0 016-1.3 15.5 15.5 0 016.2 1 10.9 10.9 0 014.2 3.5 13.8 13.8 0 011.8 3.5 18.6 18.6 0 01.8 6v8.5a38.7 38.7 0 00.1 3.9 4.8 4.8 0 00.7 2.1 2.4 2.4 0 001.5 1 18 18 0 002.8.4v2.4h-18.8v-2.4a13.8 13.8 0 002.9-.3 2.8 2.8 0 001.6-1 4.4 4.4 0 00.7-2.1 28.2 28.2 0 00.2-3.6v-8.1a31.2 31.2 0 00-.4-5.2 9.3 9.3 0 00-1.2-3.4 4.7 4.7 0 00-2.1-1.9 8.3 8.3 0 00-3.3-.5 5.2 5.2 0 00-3.3 1 9.2 9.2 0 00-2.4 3 12.6 12.6 0 00-1 2.8 16 16 0 00-.3 3.6zm43.6 0a38.7 38.7 0 00.1 3.8 4.8 4.8 0 00.7 2.2 2.5 2.5 0 001.5 1 19 19 0 002.9.3v2.4h-19v-2.4a18.8 18.8 0 002.9-.3 2.8 2.8 0 001.6-1 4.2 4.2 0 00.7-2 28 28 0 00.2-3.6v-13.2a21 21 0 00-.4-3 4.6 4.6 0 00-.5-1.3 2 2 0 00-.9-.8 4.8 4.8 0 00-1.5-.4h-2.3v-2l11.6-2.3.8 5.2h.2a14 14 0 014.7-3.9 12.9 12.9 0 016-1.3 15.5 15.5 0 016.2 1 10.9 10.9 0 014.2 3.5 13.8 13.8 0 011.8 3.5 18.6 18.6 0 01.8 6v8.5a38.7 38.7 0 00.1 3.9 4.8 4.8 0 00.7 2.1 2.4 2.4 0 001.5 1 18 18 0 002.8.4v2.4h-18.8v-2.4a13.8 13.8 0 002.9-.3 2.8 2.8 0 001.6-1 4.4 4.4 0 00.7-2.1 28.2 28.2 0 00.2-3.6v-8.1a31.2 31.2 0 00-.4-5.2 9.3 9.3 0 00-1.2-3.4 4.7 4.7 0 00-2.1-1.9 8.3 8.3 0 00-3.3-.5 5.2 5.2 0 00-3.3 1 9.2 9.2 0 00-2.4 3 12.6 12.6 0 00-1 2.8 16 16 0 00-.3 3.6z"/></svg>